<svg width="173" height="127" viewBox="0 0 173 127" fill="none" xmlns="http://www.w3.org/2000/svg">
<path d="M125.712 16.4031C151.421 25.246 165.094 53.2558 156.251 78.9648V78.9648C147.408 104.674 119.115 118.249 93.4063 109.406V109.406C67.3827 100.455 53.2563 72.0043 62.2073 45.9808L78.0228 -3.92059e-06L125.712 16.4031Z" fill="#03AB0A"/>
<path d="M80.9276 17.1632C106.492 26.4158 119.715 54.6406 110.463 80.205V80.205C101.21 105.769 72.704 118.891 47.1396 109.638V109.638C21.2624 100.272 7.59247 71.5993 16.9583 45.7222L33.5066 8.09344e-06L80.9276 17.1632Z" fill="#F0F40F" fill-opacity="0.8"/>
<path d="M91.9039 11.6937C114.668 18.433 127.658 42.35 120.919 65.1139L120.665 65.9732C114.066 88.2625 90.6475 100.982 68.3582 94.3834V94.3834C46.069 87.7846 33.3493 64.3663 39.9481 42.077L52.4051 1.39283e-05L91.9039 11.6937Z" fill="url(#paint0_linear_38_113)"/>
<defs>
<linearGradient id="paint0_linear_38_113" x1="52.9707" y1="60.0454" x2="118.117" y2="20.7872" gradientUnits="userSpaceOnUse">
<stop offset="0.13" stop-color="#0066FF"/>
<stop offset="0.27" stop-color="#0CE8CD" stop-opacity="0"/>
<stop offset="0.385" stop-color="#1DD3B3" stop-opacity="0.156863"/>
<stop offset="0.51" stop-color="#0A0802"/>
</linearGradient>
</defs>
</svg>
